# xmcd
#
# Track frame offsets:
# 150
# 13325
# 30032
# 41857
# 52880
# 65215
# 76602
# 85862
# 100327
# 112067
# 125205
# 137562
# 148572
# 159837
# 174462
# 185092
# 200415
# 216382
# 234307
# 245590
# 253402
# 264855
# 280735
# 290662
# 302247
#
# Disc length: 4172 seconds
#
#
# Revision: 3
# Processed by: cddbd v1.5.2PL0 Copyright (c) Steve Scherf et al.
# Submitted via: FreeRIP 2.951 
#
DISCID=72104a19
DTITLE=Various Artist - Soul City
DYEAR=1900
DGENRE=
TTITLE0=Sam and Dave - Soul Man
TTITLE1=James Brown - Doin' it To Death (Funky Good Times)
TTITLE2=Drifters - Up On The Roof
TTITLE3=Brook Benton - It's Just A Matter Of Time
TTITLE4=Dobie Grey - The In Crowd
TTITLE5=Rufus Thomas - Walking The Dog
TTITLE6=Gladys Knight and The Pips - Every Beat Of My Heart
TTITLE7=George Mc Crae - Rock Your Babe
TTITLE8=Solomon Burke - Hold On I'm Comin'
TTITLE9=Percy Sledge - When A Man Loves A Woman
TTITLE10=Gladys Knight and The Pips - Come See About Me
TTITLE11=Sam and Dave - You Don't Know What You Mean To Me
TTITLE12=Drifters - Save The Last Dance For Me
TTITLE13=Sam and Dave - When Something Is Wrong With My Baby
TTITLE14=Brook Benton - Thank You Pretty Baby
TTITLE15=Rufus Thomas - Do The Funky Chicken
TTITLE16=James Brown - Please, Please, Please
TTITLE17=Brook Benton - Rainy Night In Georgia
TTITLE18=Gladys Knight and The Pips - I Want That Kind Of Love
TTITLE19=James Brown - Try Me
TTITLE20=Maxine Brown - All In My Mind
TTITLE21=James Brown - I Got The Feelin'
TTITLE22=Gladys Knight and The Pips - Operator
TTITLE23=Brook Benton - Kiddio
TTITLE24=Drifters - Dance With Me
EXTD=Dolby Surround
EXTT0=
EXTT1=
EXTT2=
EXTT3=
EXTT4=
EXTT5=
EXTT6=
EXTT7=
EXTT8=
EXTT9=
EXTT10=
EXTT11=
EXTT12=
EXTT13=
EXTT14=
EXTT15=
EXTT16=
EXTT17=
EXTT18=
EXTT19=
EXTT20=
EXTT21=
EXTT22=
EXTT23=
EXTT24=
PLAYORDER=
